<?xml version="1.0" encoding="UTF-8" standalone="no"?>
<svg width="108px" height="38px" viewBox="0 0 108 38" version="1.1" xmlns="http://www.w3.org/2000/svg" xmlns:xlink="http://www.w3.org/1999/xlink">
    <!-- Generator: Sketch 3.8.2 (29753) - http://www.bohemiancoding.com/sketch -->
    <title>Group</title>
    <desc>Created with Sketch.</desc>
    <defs></defs>
    <g id="Page-1" stroke="none" stroke-width="1" fill="none" fill-rule="evenodd">
        <g id="logo_-exp" transform="translate(-39.000000, -153.000000)" fill="#FFFFFF">
            <g id="Group" transform="translate(39.000000, 153.000000)">
                <path d="M103.104,35.344 L103.104,29.132 L103.933,29.132 L103.933,34.595 L107.251,34.595 L107.251,35.344 L103.104,35.344 L103.104,35.344 Z M99.281,30.268 L98.83,31.71 L98.334,33.189 L100.272,33.189 L99.776,31.71 L99.317,30.268 L99.281,30.268 L99.281,30.268 Z M101.021,35.344 L100.534,33.946 L98.063,33.946 L97.586,35.344 L96.72,35.344 L98.884,29.132 L99.722,29.132 L101.895,35.344 L101.021,35.344 L101.021,35.344 Z M93.789,29.069 C94.125,29.069 94.441,29.114 94.735,29.204 C95.03,29.294 95.294,29.435 95.529,29.628 L95.114,30.277 C94.952,30.139 94.749,30.031 94.505,29.952 C94.262,29.874 94.023,29.835 93.789,29.835 C93.614,29.835 93.443,29.862 93.274,29.916 C93.106,29.97 92.956,30.055 92.824,30.169 C92.691,30.283 92.585,30.43 92.504,30.611 C92.423,30.791 92.382,31.01 92.382,31.268 L92.382,33.207 C92.382,33.46 92.424,33.677 92.508,33.861 C92.592,34.044 92.7,34.193 92.833,34.307 C92.965,34.421 93.114,34.505 93.279,34.559 C93.445,34.614 93.608,34.641 93.771,34.641 C94.005,34.641 94.244,34.608 94.487,34.541 C94.731,34.475 94.949,34.364 95.141,34.208 L95.538,34.848 C95.346,35.004 95.096,35.137 94.789,35.245 C94.483,35.353 94.149,35.407 93.789,35.407 C93.488,35.407 93.201,35.36 92.928,35.267 C92.654,35.174 92.414,35.04 92.208,34.866 C92.002,34.692 91.838,34.478 91.716,34.226 C91.595,33.973 91.535,33.688 91.535,33.369 L91.535,31.097 C91.535,30.785 91.596,30.504 91.721,30.254 C91.846,30.005 92.011,29.792 92.217,29.614 C92.423,29.437 92.661,29.302 92.932,29.209 C93.202,29.116 93.488,29.069 93.789,29.069 L93.789,29.069 Z M88.693,35.344 L89.523,35.344 L89.523,29.132 L88.693,29.132 L88.693,35.344 Z M86.726,34.595 C86.6,34.74 86.456,34.864 86.294,34.97 C86.131,35.075 85.962,35.159 85.784,35.222 C85.607,35.285 85.427,35.332 85.243,35.362 C85.06,35.392 84.884,35.407 84.716,35.407 C84.415,35.407 84.127,35.36 83.85,35.267 C83.574,35.174 83.331,35.04 83.12,34.866 C82.91,34.692 82.742,34.478 82.615,34.226 C82.489,33.973 82.426,33.688 82.426,33.369 L82.426,31.097 C82.426,30.785 82.489,30.504 82.617,30.254 C82.745,30.005 82.917,29.792 83.135,29.614 C83.353,29.437 83.606,29.302 83.891,29.209 C84.177,29.116 84.479,29.069 84.797,29.069 C85.14,29.069 85.457,29.114 85.748,29.204 C86.04,29.294 86.303,29.435 86.537,29.628 L86.123,30.277 C85.96,30.139 85.757,30.031 85.514,29.952 C85.27,29.874 85.032,29.835 84.797,29.835 C84.605,29.835 84.419,29.862 84.238,29.916 C84.058,29.97 83.896,30.055 83.751,30.169 C83.607,30.283 83.491,30.43 83.404,30.611 C83.317,30.791 83.274,31.01 83.274,31.268 L83.274,33.207 C83.274,33.46 83.314,33.677 83.395,33.861 C83.476,34.044 83.583,34.193 83.718,34.307 C83.853,34.421 84.007,34.505 84.181,34.559 C84.355,34.614 84.534,34.641 84.721,34.641 C84.857,34.641 85.034,34.621 85.251,34.582 C85.466,34.543 85.685,34.439 85.906,34.271 L85.906,32.82 L84.914,32.82 L84.914,32.071 L86.726,32.071 L86.726,34.595 L86.726,34.595 Z M80.008,30.989 C80.008,30.653 79.905,30.385 79.697,30.187 C79.49,29.988 79.224,29.889 78.899,29.889 L77.322,29.889 L77.322,32.08 L78.899,32.08 C79.224,32.08 79.49,31.984 79.697,31.791 C79.905,31.599 80.008,31.332 80.008,30.989 L80.008,30.989 Z M79.071,29.132 C79.383,29.132 79.651,29.188 79.873,29.299 C80.096,29.41 80.279,29.554 80.423,29.731 C80.567,29.909 80.673,30.107 80.739,30.326 C80.805,30.546 80.838,30.767 80.838,30.989 C80.838,31.163 80.814,31.336 80.766,31.508 C80.718,31.679 80.646,31.84 80.549,31.99 C80.453,32.14 80.337,32.277 80.202,32.4 C80.067,32.523 79.912,32.621 79.738,32.693 L80.901,35.344 L79.981,35.344 L78.926,32.846 L77.322,32.846 L77.322,35.344 L76.492,35.344 L76.492,29.132 L79.071,29.132 L79.071,29.132 Z M74.742,33.379 C74.742,33.697 74.68,33.982 74.557,34.235 C74.434,34.487 74.265,34.701 74.055,34.875 C73.845,35.049 73.601,35.182 73.323,35.272 C73.047,35.362 72.751,35.407 72.438,35.407 C72.126,35.407 71.828,35.362 71.549,35.272 C71.267,35.182 71.024,35.049 70.817,34.875 C70.61,34.701 70.444,34.487 70.324,34.235 C70.204,33.982 70.144,33.697 70.144,33.379 L70.144,29.132 L70.991,29.132 L70.991,33.225 C70.991,33.478 71.03,33.694 71.108,33.874 C71.186,34.055 71.29,34.202 71.423,34.316 C71.555,34.43 71.709,34.514 71.885,34.569 C72.063,34.623 72.246,34.65 72.438,34.65 C72.625,34.65 72.805,34.623 72.982,34.569 C73.159,34.514 73.314,34.43 73.45,34.316 C73.585,34.202 73.691,34.055 73.772,33.874 C73.854,33.694 73.894,33.478 73.894,33.225 L73.894,29.132 L74.742,29.132 L74.742,33.379 L74.742,33.379 Z M68.592,33.622 C68.592,33.898 68.539,34.146 68.434,34.366 C68.329,34.585 68.179,34.771 67.983,34.925 C67.788,35.078 67.555,35.195 67.284,35.276 C67.014,35.357 66.713,35.398 66.383,35.398 C65.956,35.398 65.555,35.338 65.179,35.218 C64.803,35.097 64.441,34.902 64.093,34.631 L64.562,34.036 C64.838,34.229 65.131,34.379 65.441,34.487 C65.75,34.595 66.067,34.65 66.392,34.65 C66.813,34.65 67.143,34.559 67.383,34.379 C67.624,34.199 67.744,33.946 67.744,33.622 C67.744,33.417 67.697,33.251 67.604,33.121 C67.511,32.992 67.391,32.888 67.244,32.81 C67.097,32.732 66.934,32.672 66.757,32.63 C66.58,32.588 66.407,32.549 66.239,32.513 C65.992,32.465 65.755,32.403 65.526,32.328 C65.298,32.253 65.096,32.149 64.922,32.017 C64.748,31.885 64.607,31.721 64.498,31.526 C64.39,31.33 64.336,31.088 64.336,30.8 C64.336,30.541 64.383,30.302 64.476,30.083 C64.569,29.864 64.703,29.676 64.877,29.519 C65.051,29.363 65.262,29.24 65.508,29.15 C65.755,29.06 66.034,29.015 66.346,29.015 C66.707,29.015 67.059,29.048 67.402,29.114 C67.744,29.18 68.072,29.309 68.384,29.502 L67.997,30.205 C67.732,30.048 67.457,29.937 67.172,29.871 C66.886,29.805 66.608,29.772 66.338,29.772 C66.175,29.772 66.022,29.793 65.878,29.835 C65.733,29.877 65.607,29.942 65.499,30.029 C65.391,30.116 65.305,30.226 65.242,30.358 C65.179,30.49 65.148,30.644 65.148,30.818 C65.148,30.992 65.193,31.133 65.283,31.242 C65.373,31.35 65.487,31.438 65.625,31.508 C65.764,31.577 65.914,31.632 66.076,31.674 C66.239,31.716 66.392,31.753 66.536,31.783 C66.794,31.843 67.047,31.91 67.293,31.986 C67.54,32.061 67.759,32.164 67.951,32.297 C68.144,32.429 68.299,32.6 68.416,32.81 C68.533,33.021 68.592,33.291 68.592,33.622 L68.592,33.622 Z" id="Fill-12"></path>
                <path d="M46.247,19.278 C46.247,22.713 45.335,24.211 42.431,24.211 C39.526,24.211 38.614,22.713 38.614,19.278 C38.614,15.842 39.526,14.344 42.431,14.344 C45.25,14.344 46.247,15.754 46.247,19.278 L46.247,19.278 Z M42.345,12.23 C38.245,12.23 36.109,14.609 36.109,19.278 C36.109,23.947 38.159,26.325 42.345,26.325 C46.445,26.325 48.581,23.947 48.581,19.278 C48.581,14.609 46.531,12.23 42.345,12.23 L42.345,12.23 Z" id="Fill-13"></path>
                <path d="M58.238,16.635 C58.238,18.132 57.352,18.837 55.58,18.837 L52.745,18.837 L52.745,14.52 L55.58,14.52 C57.441,14.52 58.238,15.225 58.238,16.635 L58.238,16.635 Z M57.795,20.511 C58.681,20.159 60.453,19.189 60.453,16.547 C60.453,13.904 58.681,12.318 55.669,12.318 L50.619,12.318 L50.619,26.061 L52.745,26.061 L52.745,20.951 L55.492,20.951 L58.77,26.061 L58.858,26.149 L61.428,26.149 L61.162,25.709 L57.795,20.511 L57.795,20.511 Z" id="Fill-14"></path>
                <path d="M34.76,10.224 C34.76,10.224 36.581,10.185 37.401,10.204 C37.401,10.204 42.09,3.363 50.37,2.306 C59.068,1.196 63.043,9.543 63.31,10.186 L64.442,10.185 C64.442,10.185 60.972,-0.361 49.601,0.609 C40.142,1.416 34.76,9.954 34.76,10.224" id="Fill-15"></path>
                <path d="M32.571,28.022 C32.571,28.022 33.736,28.041 34.557,28.022 C34.557,28.022 37.017,35.095 45.296,36.152 C53.995,37.263 60.375,28.666 60.642,28.022 L61.516,28.022 C61.516,28.022 55.716,38.109 44.345,37.139 C34.886,36.332 32.571,28.293 32.571,28.022" id="Fill-16"></path>
                <path d="M27.718,24.444 L27.718,14.484 L29.048,14.484 L29.048,23.244 L34.368,23.244 L34.368,24.444 L27.718,24.444 L27.718,24.444 Z M24.411,17.461 C24.411,16.922 24.244,16.493 23.912,16.175 C23.579,15.857 23.153,15.698 22.632,15.698 L20.103,15.698 L20.103,19.211 L22.632,19.211 C23.153,19.211 23.579,19.057 23.912,18.748 C24.244,18.44 24.411,18.011 24.411,17.461 L24.411,17.461 Z M25.726,17.461 C25.726,17.818 25.661,18.172 25.531,18.524 C25.401,18.876 25.215,19.194 24.974,19.478 C24.733,19.762 24.439,19.994 24.092,20.172 C23.745,20.35 23.35,20.44 22.907,20.44 L20.103,20.44 L20.103,24.444 L18.773,24.444 L18.773,14.484 L22.907,14.484 C23.389,14.484 23.806,14.573 24.157,14.751 C24.509,14.929 24.801,15.161 25.032,15.445 C25.263,15.729 25.437,16.047 25.552,16.399 C25.668,16.751 25.726,17.105 25.726,17.461 L25.726,17.461 Z M15.041,24.444 L12.728,20.425 L10.43,24.444 L8.883,24.444 L11.976,19.341 L9.085,14.484 L10.632,14.484 L12.728,18.242 L14.839,14.484 L16.385,14.484 L13.494,19.341 L16.588,24.444 L15.041,24.444 L15.041,24.444 Z M0.294,24.444 L0.294,14.484 L6.944,14.484 L6.944,15.698 L1.624,15.698 L1.624,18.864 L6.178,18.864 L6.178,20.064 L1.624,20.064 L1.624,23.244 L6.944,23.244 L6.944,24.444 L0.294,24.444 L0.294,24.444 Z" id="Fill-17"></path>
                <path d="M79.182,17.461 C79.182,16.922 79.016,16.493 78.683,16.175 C78.351,15.857 77.924,15.698 77.404,15.698 L74.874,15.698 L74.874,19.211 L77.404,19.211 C77.924,19.211 78.351,19.057 78.683,18.748 C79.016,18.44 79.182,18.011 79.182,17.461 L79.182,17.461 Z M77.679,14.484 C78.18,14.484 78.609,14.573 78.965,14.751 C79.322,14.929 79.616,15.161 79.847,15.445 C80.078,15.729 80.247,16.047 80.353,16.399 C80.459,16.751 80.512,17.105 80.512,17.461 C80.512,17.741 80.473,18.018 80.396,18.293 C80.319,18.568 80.203,18.825 80.049,19.066 C79.895,19.307 79.71,19.526 79.493,19.724 C79.276,19.921 79.028,20.078 78.748,20.194 L80.613,24.444 L79.139,24.444 L77.447,20.44 L74.874,20.44 L74.874,24.444 L73.544,24.444 L73.544,14.484 L77.679,14.484 L77.679,14.484 Z M64.262,24.444 L64.262,14.484 L70.911,14.484 L70.911,15.698 L65.592,15.698 L65.592,18.864 L70.145,18.864 L70.145,20.064 L65.592,20.064 L65.592,23.244 L70.911,23.244 L70.911,24.444 L64.262,24.444 L64.262,24.444 Z" id="Fill-18"></path>
            </g>
        </g>
    </g>
</svg>